<svg width="484" height="314" viewBox="0 0 484 314" fill="none" xmlns="http://www.w3.org/2000/svg">
<g clip-path="url(#clip0)">
<path d="M-57.8001 219.702C-57.6393 213.917 -56.4755 208.202 -54.3604 202.81L13.9567 28.6657C28.1547 -7.52585 80.547 -3.6702 90.0881 33.9669V33.9669C99.929 72.7862 154.839 74.717 166.483 36.3525V36.3525C177.829 -1.03001 230.691 -1.22684 242.151 36.0708L260.543 95.9297C271.349 131.099 315.195 142.845 342.249 117.819L388.687 74.8622C416.231 49.3834 460.915 62.0881 470.819 98.2145L489.021 164.611C490.194 168.889 490.792 173.305 490.799 177.743L490.967 287.541C491.01 315.897 467.489 338.666 439.152 337.698L-11.0631 322.327C-38.4927 321.39 -59.9907 298.515 -59.228 271.076L-57.8001 219.702Z" fill="#8555F6" stroke="#8555F6"/>
<path d="M235.079 302.065L17.6176 191.433C10.6964 188.09 4.75531 182.591 11.5071 178.997L229.755 70.6775C233.034 68.9277 238.007 67.782 241.334 69.4485L469.613 183.538C476.534 186.996 477.781 196.662 470.823 200.13L263.78 301.888C259.428 304.065 254.49 305.227 249.457 305.258C244.423 305.289 239.467 304.188 235.079 302.065V302.065Z" fill="#8555F6"/>
<path d="M119.233 232.23C120.201 232.73 172.945 205.64 172.897 206.421L265.111 155.958L239.87 146.116L68.5465 206.421C74.9232 208.608 113.329 229.189 119.233 232.23Z" fill="url(#paint0_linear)"/>
<path d="M153.271 29.266C138.146 36.9838 100.708 56.0543 89.5037 61.6578C88.5449 62.1379 87.7516 62.8288 87.2052 63.6597C86.6587 64.4906 86.3788 65.4317 86.394 66.3864V198.661C86.1641 201.359 89.7094 203.869 92.6013 202.442L155.521 171.592C158.05 170.342 159.672 168.582 159.672 166.072V32.4219C159.669 31.7784 159.47 31.1469 159.094 30.5908C158.717 30.0347 158.178 29.5735 157.529 29.2537C156.881 28.9339 156.146 28.7667 155.398 28.7688C154.651 28.771 153.917 28.9425 153.271 29.266V29.266Z" fill="#68E1FD"/>
<g opacity="0.46">
<path opacity="0.46" d="M153.271 29.266C138.146 36.9838 100.708 56.0543 89.5037 61.6578C88.5449 62.1379 87.7516 62.8288 87.2052 63.6597C86.6587 64.4906 86.3788 65.4317 86.394 66.3864V198.661C86.1641 201.359 89.7094 203.869 92.6013 202.442L155.521 171.592C158.05 170.342 159.672 168.582 159.672 166.072V32.4219C159.669 31.7784 159.47 31.1469 159.094 30.5908C158.717 30.0347 158.178 29.5735 157.529 29.2537C156.881 28.9339 156.146 28.7667 155.398 28.7688C154.651 28.771 153.917 28.9425 153.271 29.266V29.266Z" fill="#606060"/>
</g>
<path d="M147.77 93.5915C152.733 79.2707 147.682 65.3314 136.488 62.4572C125.294 59.5829 112.196 68.8621 107.234 83.1829C102.271 97.5036 107.322 111.443 118.516 114.317C129.71 117.191 142.807 107.912 147.77 93.5915Z" fill="white"/>
<path d="M137.654 84.1611C139.315 77.7319 136.77 71.7748 131.969 70.8556C127.168 69.9364 121.929 74.4031 120.268 80.8323C118.606 87.2615 121.151 93.2186 125.953 94.1378C130.754 95.057 135.993 90.5903 137.654 84.1611Z" fill="#47739D"/>
<path d="M112.651 111.412C112.651 111.412 116.68 100.028 128.962 96.1014C141.655 92.0498 144.401 99.2885 144.401 99.2885C144.401 99.2885 141.836 110.36 128.962 114.495C116.087 118.63 112.651 111.412 112.651 111.412Z" fill="#47739D"/>
<path d="M209.633 24.7249C194.508 32.4427 157.07 51.5132 145.866 57.1167C144.917 57.5968 144.132 58.2839 143.59 59.1087C143.048 59.9334 142.769 60.8666 142.78 61.814V194.089C142.55 196.787 146.095 199.297 148.987 197.87L211.907 167.02C214.436 165.77 216.058 164.01 216.058 161.499V27.8495C216.051 27.2057 215.848 26.5746 215.468 26.0199C215.088 25.4652 214.545 25.0064 213.894 24.6896C213.242 24.3729 212.506 24.2094 211.758 24.2156C211.01 24.2218 210.277 24.3975 209.633 24.7249V24.7249Z" fill="#68E1FD"/>
<g opacity="0.25">
<path opacity="0.25" d="M209.633 24.7249C194.508 32.4427 157.07 51.5132 145.866 57.1167C144.917 57.5968 144.132 58.2839 143.59 59.1087C143.048 59.9334 142.769 60.8666 142.78 61.814V194.089C142.55 196.787 146.095 199.297 148.987 197.87L211.907 167.02C214.436 165.77 216.058 164.01 216.058 161.499V27.8495C216.051 27.2057 215.848 26.5746 215.468 26.0199C215.088 25.4652 214.545 25.0064 213.894 24.6896C213.242 24.3729 212.506 24.2094 211.758 24.2156C211.01 24.2218 210.277 24.3975 209.633 24.7249V24.7249Z" fill="#606060"/>
</g>
<path d="M205.705 83.1914C210.668 68.8706 205.617 54.9313 194.423 52.0571C183.229 49.1828 170.132 58.462 165.169 72.7828C160.206 87.1035 165.257 101.043 176.451 103.917C187.645 106.791 200.742 97.5121 205.705 83.1914Z" fill="white"/>
<path d="M195.593 73.7512C197.255 67.322 194.709 61.365 189.908 60.4458C185.107 59.5265 179.868 63.9933 178.207 70.4225C176.546 76.8517 179.091 82.8087 183.892 83.728C188.693 84.6472 193.932 80.1804 195.593 73.7512Z" fill="#47739D"/>
<path d="M170.61 101.007C170.61 101.007 174.639 89.623 186.921 85.6964C199.614 81.6449 202.36 88.8835 202.36 88.8835C202.36 88.8835 199.795 99.9551 186.921 104.09C174.046 108.225 170.61 101.007 170.61 101.007Z" fill="#47739D"/>
<path d="M260.307 14.6533C245.182 22.3711 207.745 41.4416 196.54 47.045C195.587 47.5225 194.797 48.2085 194.251 49.0334C193.705 49.8584 193.422 50.7929 193.431 51.7424V184.08C193.201 186.777 196.746 189.288 199.638 187.861L262.57 157C265.099 155.75 266.72 153.99 266.72 151.48V17.8091C266.719 17.1641 266.52 16.5309 266.143 15.9733C265.766 15.4157 265.226 14.9535 264.575 14.6334C263.924 14.3133 263.187 14.1465 262.438 14.15C261.689 14.1535 260.954 14.3271 260.307 14.6533V14.6533Z" fill="#68E1FD"/>
<path d="M227.165 293.358C227.588 293.565 227.934 293.87 228.165 294.239C228.396 294.607 228.502 295.023 228.472 295.441L317.468 248.468L295.446 235.115L208.906 285.224C215.235 287.512 221.341 290.232 227.165 293.358V293.358Z" fill="url(#paint1_linear)"/>
<path d="M281.434 239.906C281.434 240.156 275.384 252.092 273.98 252.842C272.577 253.592 268.402 251.249 266.962 252.571C265.522 253.894 263.671 256.738 266.853 257.873C270.036 259.008 279.51 260.112 281.252 259.498C282.912 258.72 284.48 257.806 285.935 256.769C285.935 256.769 286.83 250.374 287.823 251.249C288.815 252.124 288.452 259.029 289.166 259.227C290.106 259.257 291.045 259.141 291.937 258.883L291.029 238.708" fill="#FF6161"/>
<path d="M307.764 229.178C307.764 229.428 301.181 241.177 299.777 241.875C298.374 242.573 294.272 240.115 292.82 241.364C291.368 242.614 289.359 245.385 292.493 246.655C295.627 247.926 305.053 249.322 306.808 248.738C308.515 248.015 310.136 247.15 311.648 246.155C311.648 246.155 312.858 239.792 313.753 240.698C314.648 241.604 314.068 248.489 314.769 248.707C315.708 248.766 316.651 248.678 317.552 248.447L317.48 228.251" fill="#FF6161"/>
<path d="M256.517 78.2054C261.48 63.8847 256.428 49.9454 245.235 47.0711C234.041 44.1968 220.943 53.476 215.98 67.7968C211.017 82.1175 216.069 96.0569 227.262 98.9311C238.456 101.805 251.554 92.5261 256.517 78.2054Z" fill="white"/>
<path d="M246.391 68.7618C248.052 62.3326 245.507 56.3755 240.706 55.4563C235.905 54.5371 230.666 59.0038 229.004 65.433C227.343 71.8622 229.888 77.8193 234.69 78.7385C239.491 79.6577 244.729 75.191 246.391 68.7618Z" fill="#47739D"/>
<path d="M221.43 96.0181C221.43 96.0181 225.459 84.6341 237.741 80.7075C250.434 76.6559 253.18 83.8946 253.18 83.8946C253.18 83.8946 250.615 94.9661 237.741 99.101C224.866 103.236 221.43 96.0181 221.43 96.0181Z" fill="#47739D"/>
<path d="M204.684 123.306V132.003C204.684 132.47 204.818 132.931 205.076 133.342C205.333 133.753 205.705 134.103 206.159 134.36C206.612 134.618 207.133 134.774 207.674 134.815C208.214 134.856 208.759 134.781 209.257 134.597L258.238 116.38C258.825 116.163 259.326 115.803 259.679 115.344C260.031 114.885 260.22 114.347 260.223 113.797V105.465C260.224 104.998 260.09 104.538 259.834 104.126C259.578 103.715 259.208 103.364 258.756 103.106C258.304 102.848 257.784 102.691 257.244 102.648C256.704 102.605 256.16 102.678 255.661 102.861L206.668 120.702C206.077 120.921 205.574 121.285 205.221 121.748C204.868 122.211 204.681 122.753 204.684 123.306V123.306Z" fill="white"/>
<path d="M204.756 144.439V153.115C204.756 153.582 204.891 154.042 205.148 154.454C205.406 154.865 205.778 155.215 206.231 155.472C206.685 155.729 207.205 155.886 207.746 155.927C208.287 155.968 208.831 155.893 209.33 155.709L258.299 137.555C258.886 137.337 259.387 136.977 259.739 136.518C260.092 136.059 260.281 135.522 260.283 134.972V126.639C260.284 126.172 260.151 125.712 259.895 125.301C259.639 124.889 259.268 124.539 258.816 124.281C258.364 124.023 257.845 123.865 257.305 123.822C256.765 123.78 256.221 123.853 255.721 124.035L206.729 141.877C206.147 142.094 205.652 142.452 205.302 142.907C204.952 143.361 204.762 143.894 204.756 144.439V144.439Z" fill="white"/>
<path d="M207.2 123.765L257.04 106.538" stroke="#F15A24" stroke-width="1.015" stroke-miterlimit="10"/>
<path d="M207.612 127.337L257.452 110.11" stroke="#F15A24" stroke-width="1.015" stroke-miterlimit="10"/>
<path d="M284.604 136.273C284.604 136.273 265.244 221.679 266.829 241.562C266.829 241.562 270.677 254.79 303.976 250.384C303.976 250.384 306.856 240.458 305.573 223.648C304.291 206.838 300.733 136.273 300.733 136.273H284.604Z" fill="#68E1FD"/>
<path d="M288.113 237.261L293.135 135.305L313.172 133.701C313.172 133.701 321.896 159.979 319.985 172.654C318.073 185.33 322.223 202.151 323.191 210.962C324.05 218.878 324.401 232.553 321.219 238.667C310.462 241.364 298.87 240.427 288.113 237.261Z" fill="#68E1FD"/>
<path d="M305.38 245.531C306.931 239.137 308.054 232.673 308.744 226.168C309.028 222.99 309.057 219.799 308.828 216.618C308.489 213.339 307.948 210.077 307.207 206.848C306.056 201.057 305.748 195.165 306.287 189.308C306.808 183.299 307.872 177.331 308.538 171.332C309.288 164.572 309.494 157.729 307.776 151.063C307.558 150.199 309.095 149.834 309.324 150.699C312.422 162.676 309.433 174.81 308.114 186.809C307.314 193.009 307.452 199.272 308.526 205.442C309.107 208.452 309.821 211.452 310.196 214.493C310.578 217.752 310.667 221.033 310.462 224.304C309.856 231.559 308.672 238.77 306.917 245.885C306.723 246.78 305.186 246.416 305.38 245.531Z" fill="white"/>
<path d="M262.909 115.995L269.709 113.505L263.816 82.5094L244.359 90.3417L246.646 104.923L249.478 119.88L262.909 115.995L260.803 113.662Z" fill="#47739D"/>
<path d="M297.72 91.7582C295.833 92.3519 287.593 92.3519 284.955 98.9344C283.086 103.839 281.515 108.825 280.248 113.87L260.549 104.246C260.549 104.246 259.339 119.182 261.759 122.994C264.179 126.806 275.577 135.149 284.991 130.285C284.991 130.285 284.108 136.107 284.991 137.877C285.875 139.648 307.534 141.794 312.531 136.232C317.528 130.67 314.104 104.215 314.104 104.215" fill="#FF6161"/>
<path d="M260.876 111.735C261.191 109.6 261.287 107.444 261.529 105.298C260.853 104.844 260.233 104.331 259.678 103.767C259.001 103.142 258.347 102.496 257.718 101.84C257.307 101.132 256.895 100.424 256.508 99.7572L256.012 98.8823C255.395 97.7783 254.802 96.0285 253.362 95.5286C253.092 95.4304 252.8 95.3867 252.508 95.4009C252.216 95.4152 251.932 95.4869 251.677 95.6107C251.422 95.7344 251.204 95.9069 251.039 96.1148C250.873 96.3226 250.766 96.5604 250.724 96.8096C250.482 98.7365 254.282 102.851 249.78 102.736C248.937 102.7 248.091 102.72 247.251 102.798C245.533 102.996 243.96 103.715 244.589 105.413C244.68 105.653 244.81 105.881 244.977 106.09C244.677 106.177 244.402 106.317 244.168 106.5C243.934 106.683 243.746 106.905 243.617 107.154C243.488 107.402 243.419 107.671 243.416 107.943C243.412 108.215 243.474 108.485 243.597 108.735C243.725 109.022 243.922 109.282 244.174 109.499C244.426 109.716 244.729 109.885 245.061 109.996C244.808 110.242 244.662 110.556 244.649 110.885C244.636 111.214 244.756 111.536 244.989 111.797C245.371 112.244 245.939 112.546 246.574 112.641C246.527 112.932 246.564 113.229 246.683 113.505C247.251 114.818 249.26 115.287 250.676 115.495C253.853 115.85 257.064 115.923 260.259 115.714C260.416 114.37 260.682 113.058 260.876 111.735Z" fill="#F7931E"/>
<path opacity="0.7" d="M292.481 112.599C292.434 116.014 291.819 119.406 290.654 122.671C289.7 125.665 287.442 128.228 284.35 129.826C283.733 130.149 284.35 130.982 284.919 130.66C288.014 129.089 290.337 126.6 291.453 123.66C292.845 120.095 293.568 116.361 293.594 112.599C293.594 112.472 293.536 112.35 293.431 112.261C293.327 112.171 293.185 112.12 293.038 112.12C292.89 112.12 292.749 112.171 292.644 112.261C292.54 112.35 292.481 112.472 292.481 112.599Z" fill="#47739D"/>
<path d="M307.34 90.0397C305.186 89.8834 265.389 67.6883 264.167 68.6257C262.945 69.5631 258.468 81.2387 264.349 85.4152C270.229 89.5918 305.634 106.538 305.634 106.538" fill="#F25555"/>
<path d="M246.453 69.7714C245.11 71.7503 246.102 73.8542 247.53 75.8331C247.714 75.7799 247.914 75.7799 248.098 75.8331C249.851 76.308 251.637 76.6838 253.447 76.958C254.871 77.213 256.314 77.3801 257.766 77.4579C259.254 77.5265 260.711 77.8524 262.05 78.4161C262.071 76.2662 262.253 74.1197 262.594 71.9898C256.883 69.6256 252.188 68.0841 247.022 64.9282C246.465 64.5845 245.049 63.3868 244.602 63.5742C244.42 63.5824 244.243 63.6257 244.084 63.7007C243.925 63.7757 243.787 63.8807 243.681 64.0077C243.576 64.1347 243.505 64.2806 243.473 64.4346C243.442 64.5885 243.451 64.7466 243.5 64.897C243.839 66.8134 246.126 67.8549 247.893 68.8236C247.917 68.9069 246.368 69.7297 246.453 69.7714Z" fill="#F7931E"/>
<path d="M247.723 71.1879C248.062 70.74 247.215 70.3546 246.876 70.8025C246.597 71.174 246.37 71.5726 246.199 71.9898C245.905 72.5603 245.757 73.1782 245.763 73.8021C245.779 73.9454 245.803 74.088 245.836 74.2291C245.821 74.2875 245.821 74.3478 245.836 74.4062C245.867 74.5522 245.932 74.6913 246.028 74.8148C246.124 74.9384 246.248 75.0439 246.392 75.1249C246.985 75.3748 247.433 74.8228 247.602 74.4374C247.906 73.8731 248.059 73.2574 248.05 72.6356C248.05 72.1773 248.05 71.594 247.626 71.292L247.723 71.1879Z" fill="#F7931E"/>
<path d="M261.094 77.51C259.724 76.8512 258.174 76.5203 256.605 76.5518C254.475 76.6143 252.382 77.1142 250.918 75.3436C250.034 74.3021 250.107 73.0418 248.897 72.1461C248.626 71.9499 248.343 71.7656 248.05 71.5941L247.457 71.2608C247.281 71.2022 247.122 71.1126 246.988 70.9978C246.855 70.883 246.751 70.7456 246.683 70.5942C246.644 70.4621 246.64 70.324 246.673 70.1906C246.706 70.0573 246.775 69.9323 246.873 69.8255C246.972 69.7186 247.097 69.6327 247.241 69.5746C247.384 69.5164 247.541 69.4875 247.699 69.4902C248.127 69.5252 248.541 69.6426 248.909 69.8339H249.006C249.696 70.0318 250.373 70.2713 251.051 70.5213C251.728 70.7712 252.067 70.0005 251.498 69.7922C250.155 69.2923 247.203 67.8654 245.993 69.2506C245.812 69.4243 245.688 69.6368 245.634 69.8659C245.581 70.0949 245.601 70.3321 245.69 70.5525V70.5525C245.42 71.3321 245.225 72.13 245.11 72.9376C244.915 73.5211 244.928 74.1414 245.146 74.7187C245.335 75.0331 245.634 75.2881 246.001 75.4471C246.369 75.6061 246.785 75.661 247.191 75.604C247.24 75.779 247.317 75.9473 247.421 76.1039C247.759 76.4876 248.248 76.7513 248.797 76.8454C249.345 76.9394 249.915 76.8572 250.397 76.6143C250.476 76.5887 250.542 76.5405 250.584 76.4778C250.626 76.4152 250.641 76.3419 250.627 76.2706C251.12 76.7251 251.723 77.0806 252.394 77.3121C253.519 77.5935 254.706 77.6364 255.854 77.4371C257.527 77.2694 259.218 77.5533 260.694 78.2495C260.803 78.2711 260.916 78.26 261.016 78.2181C261.116 78.1762 261.196 78.106 261.243 78.0193C261.29 77.9325 261.3 77.8346 261.273 77.7419C261.246 77.6491 261.183 77.5672 261.094 77.51V77.51ZM247.07 74.7812L246.973 74.8437C246.61 75.1353 245.969 74.1667 245.92 74.0208C245.874 73.6001 245.924 73.1756 246.066 72.771C246.138 72.3335 246.247 71.9065 246.368 71.4899C246.729 71.7661 247.109 72.0235 247.505 72.2606C247.264 73.0864 247.118 73.9307 247.07 74.7812ZM249.877 75.9581C248.594 76.4685 248.074 75.5415 248.11 74.5729C248.143 73.9854 248.224 73.4007 248.352 72.8231L248.57 73.0105C249.429 73.8542 249.478 75.0936 250.24 75.9477C250.122 75.9115 249.992 75.9153 249.877 75.9581V75.9581Z" fill="#42210B"/>
<path d="M286.25 70.8025C285.04 71.4691 285.04 88.2274 290.606 90.3C297.866 92.9976 303.649 85.634 304.327 81.6865C305.005 77.7391 300.528 63.0222 286.25 70.8025Z" fill="#F7931E"/>
<path d="M324.389 97.7991C323.367 97.2157 322.504 96.4481 321.86 95.5494C321.477 94.4388 321.321 93.2793 321.4 92.1227C321.219 89.2898 320.36 86.2901 317.322 84.7382C315.386 83.7488 312.64 84.6133 311.03 83.0926C309.203 81.3741 309.82 78.8327 309.554 76.7288C308.247 65.7719 289.517 63.793 283.491 72.7189C282.508 74.128 282.188 75.8075 282.598 77.4129C283.007 79.0184 284.115 80.4282 285.693 81.3532C286.584 81.8844 287.601 82.24 288.67 82.3948C290.219 82.6031 291.743 82.5718 292.409 84.0196C293.401 86.1756 291.574 88.4149 290.666 90.3417C289.263 93.3309 288.815 97.6325 292.203 99.7988C293.8 100.84 295.833 101.038 297.672 101.538C298.488 101.699 299.233 102.061 299.814 102.58C300.721 103.559 300.14 104.913 299.959 106.017C299.846 106.603 299.846 107.201 299.959 107.787C299.846 108.341 299.879 108.91 300.057 109.451C300.235 109.992 300.553 110.492 300.987 110.912C303.02 112.995 306.759 113.11 309.712 112.995C313.146 112.847 316.517 112.14 319.646 110.912C322.404 109.87 325.805 108.173 327.22 105.767C328.914 102.736 327.015 99.7155 324.389 97.7991Z" fill="#42210B"/>
</g>
<defs>
<linearGradient id="paint0_linear" x1="126.118" y1="204.692" x2="211.064" y2="138.496" gradientUnits="userSpaceOnUse">
<stop stop-color="#8555F6"/>
<stop offset="1" stop-color="#3E38A5"/>
</linearGradient>
<linearGradient id="paint1_linear" x1="21693.2" y1="16435.6" x2="24593" y2="12934.7" gradientUnits="userSpaceOnUse">
<stop stop-color="#8555F6"/>
<stop offset="1" stop-color="#3E38A5"/>
</linearGradient>
<clipPath id="clip0">
<rect width="484" height="314" rx="50" fill="white"/>
</clipPath>
</defs>
</svg>
